<svg width="64" height="64" viewBox="0 0 64 64" xmlns="http://www.w3.org/2000/svg">
  <defs>
    <linearGradient id="airGradient" x1="0%" y1="0%" x2="100%" y2="100%">
      <stop offset="0%" style="stop-color:#F0F8FF;stop-opacity:1" />
      <stop offset="50%" style="stop-color:#B0C4DE;stop-opacity:1" />
      <stop offset="100%" style="stop-color:#708090;stop-opacity:1" />
    </linearGradient>
  </defs>
  <!-- Wind swirls -->
  <g fill="none" stroke="url(#airGradient)" stroke-width="3" stroke-linecap="round">
    <path d="M10 20 Q20 15, 30 20 Q40 25, 50 20 Q55 18, 54 22"/>
    <path d="M8 32 Q18 27, 28 32 Q38 37, 48 32 Q58 27, 56 32"/>
    <path d="M12 44 Q22 39, 32 44 Q42 49, 52 44 Q57 42, 56 46"/>
  </g>
  <!-- Cloud elements -->
  <g fill="#F0F8FF" stroke="#708090" stroke-width="1" opacity="0.7">
    <circle cx="20" cy="16" r="4"/>
    <circle cx="28" cy="14" r="5"/>
    <circle cx="36" cy="16" r="4"/>
    <circle cx="44" cy="18" r="3"/>
  </g>
  <!-- Feather accent -->
  <path d="M32 48 Q28 52, 24 56 M32 48 Q36 52, 40 56 M32 48 L32 58" 
        stroke="#B0C4DE" stroke-width="2" fill="none" stroke-linecap="round"/>
</svg>