<svg xmlns="http://www.w3.org/2000/svg" viewBox="0 0 256 256" role="img" aria-labelledby="title desc">
  <title id="title">Alternation Orb</title>
  <desc id="desc">A dual-color orb with a metallic ring and two chasing arrows indicating transformation/alternation.</desc>
  <style>
    :root{
      --stroke:#0f172a;         /* outlines */
      --metal1:#94a3b8;         /* ring light */
      --metal2:#64748b;         /* ring dark */
      --core1:#22d3ee;          /* core top (teal) */
      --core2:#a78bfa;          /* core bottom (violet) */
      --glow:#60a5fa;           /* outer glow */
      --shine:#ffffff;          /* highlights */
      --arrow:#0f172a;          /* arrows */
    }
  </style>
  <defs>
    <radialGradient id="coreGrad" cx="50%" cy="40%" r="60%">
      <stop offset="0%"  style="stop-color:var(--core1)"/>
      <stop offset="100%" style="stop-color:var(--core2)"/>
    </radialGradient>
    <linearGradient id="ringGrad" x1="0" y1="0" x2="1" y2="1">
      <stop offset="0%" style="stop-color:var(--metal1)"/>
      <stop offset="100%" style="stop-color:var(--metal2)"/>
    </linearGradient>
    <filter id="orbGlow" x="-40%" y="-40%" width="180%" height="180%">
      <feDropShadow dx="0" dy="0" stdDeviation="8" flood-color="var(--glow)" flood-opacity="0.6"/>
    </filter>
    <mask id="ringCut">
      <rect width="100%" height="100%" fill="#fff"/>
      <circle cx="128" cy="128" r="76" fill="#000"/>
    </mask>
  </defs>

  <!-- Outer ring with glow -->
  <circle cx="128" cy="128" r="100" fill="url(#ringGrad)" stroke="var(--stroke)" stroke-width="6" filter="url(#orbGlow)" mask="url(#ringCut)"/>

  <!-- Orb core -->
  <circle cx="128" cy="128" r="76" fill="url(#coreGrad)" stroke="var(--stroke)" stroke-width="6"/>

  <!-- Yin-like divider -->
  <path d="M128 52a76 76 0 1 1 0 152c-18 0-30-12-30-26 0-12 9-22 24-24-16-2-26-14-26-28 0-14 12-26 32-26z"
        fill="rgba(255,255,255,0.15)"/>

  <!-- Chasing arrows (alternation) -->
  <g fill="none" stroke="var(--arrow)" stroke-width="8" stroke-linecap="round" stroke-linejoin="round" opacity="0.95">
    <path d="M76 112c8-28 32-48 60-48 10 0 20 2 28 6" />
    <path d="M180 144c-8 28-32 48-60 48-10 0-20-2-28-6" />
    <!-- arrowheads -->
    <path d="M160 68l16 4-8 14"/>
    <path d="M96 196l-16-4 8-14"/>
  </g>

  <!-- Specular arc -->
  <path d="M172 92c0-18-18-30-34-28 10 6 16 16 16 26 0 12-8 22-20 28"
        fill="none" stroke="var(--shine)" stroke-width="5" opacity="0.55" stroke-linecap="round"/>
</svg>
