<svg xmlns="http://www.w3.org/2000/svg" viewBox="0 0 256 256" role="img" aria-labelledby="title desc">
  <title id="title">Body Armor Icon</title>
  <desc id="desc">Front-view chestplate with pauldrons, center ridge, and rivets.</desc>

  <style>
    :root{
      --stroke:#0f172a;      /* outline */
      --metal1:#cbd5e1;      /* steel light */
      --metal2:#94a3b8;      /* mid */
      --metal3:#64748b;      /* dark */
      --accent:#1e293b;      /* straps/vents */
      --rivet:#e2e8f0;       /* rivets */
      --tint:transparent;    /* rarity overlay (e.g., rgba(99,102,241,.15)) */
      --glow:#60a5fa;        /* outer glow */
      --leather:#7c5a3a;     /* strap color */
    }
  </style>

  <defs>
    <linearGradient id="steelV" x1="0" y1="0" x2="0" y2="1">
      <stop offset="0%"  stop-color="var(--metal1)"/>
      <stop offset="55%" stop-color="var(--metal2)"/>
      <stop offset="100%" stop-color="var(--metal3)"/>
    </linearGradient>
    <linearGradient id="steelH" x1="0" y1="0" x2="1" y2="0">
      <stop offset="0%"  stop-color="var(--metal2)"/>
      <stop offset="100%" stop-color="var(--metal3)"/>
    </linearGradient>
    <filter id="softGlow" x="-40%" y="-40%" width="180%" height="180%">
      <feDropShadow dx="0" dy="0" stdDeviation="7" flood-color="var(--glow)" flood-opacity="0.45"/>
    </filter>
    <clipPath id="plateClip">
      <path d="M128 52c-30 0-58 10-78 30 0 24 4 46 16 64 10 14 22 24 34 30 8 4 12 10 12 18v12h32v-12c0-8 4-14 12-18 12-6 24-16 34-30 12-18 16-40 16-64-20-20-48-30-78-30z"/>
    </clipPath>
  </defs>

  <!-- Chestplate silhouette -->
  <path filter="url(#softGlow)"
        d="M128 52c-30 0-58 10-78 30 0 24 4 46 16 64 10 14 22 24 34 30 8 4 12 10 12 18v12h32v-12c0-8 4-14 12-18 12-6 24-16 34-30 12-18 16-40 16-64-20-20-48-30-78-30z"
        fill="url(#steelV)" stroke="var(--stroke)" stroke-width="8"/>

  <!-- Pauldrons -->
  <g>
    <path d="M42 94c0 0 18-22 54-28l-4 22c-24 6-34 16-44 28-6-8-8-14-6-22z"
          fill="url(#steelH)" stroke="var(--stroke)" stroke-width="6"/>
    <path d="M214 94c0 0-18-22-54-28l4 22c24 6 34 16 44 28 6-8 8-14 6-22z"
          fill="url(#steelH)" stroke="var(--stroke)" stroke-width="6"/>
  </g>

  <!-- Collar rim -->
  <path d="M84 84c12-10 28-14 44-14s32 4 44 14" fill="none" stroke="var(--stroke)" stroke-width="6" stroke-linecap="round"/>

  <!-- Center ridge and abdominal plates -->
  <g>
    <path d="M128 92v92" stroke="var(--stroke)" stroke-width="6" stroke-linecap="round"/>
    <path d="M76 128h104M84 148h88M92 168h72" stroke="var(--stroke)" stroke-width="6" stroke-linecap="round" opacity="0.7"/>
  </g>

  <!-- Strap anchors -->
  <g fill="var(--leather)" stroke="var(--stroke)" stroke-width="4">
    <rect x="52" y="116" width="18" height="12" rx="3"/>
    <rect x="186" y="116" width="18" height="12" rx="3"/>
  </g>

  <!-- Vent/trim accents -->
  <g stroke="var(--accent)" stroke-width="5" stroke-linecap="round" opacity="0.8">
    <path d="M64 140l10 0M182 140l10 0"/>
  </g>

  <!-- Rarity tint overlay -->
  <g clip-path="url(#plateClip)">
    <rect x="0" y="0" width="256" height="256" fill="var(--tint)"/>
  </g>

  <!-- Rivets -->
  <g fill="var(--rivet)" stroke="var(--stroke)" stroke-width="2">
    <circle cx="76" cy="100" r="4"/><circle cx="180" cy="100" r="4"/>
    <circle cx="64" cy="156" r="3.5"/><circle cx="192" cy="156" r="3.5"/>
    <circle cx="96" cy="200" r="3.5"/><circle cx="160" cy="200" r="3.5"/>
  </g>

  <!-- Highlights -->
  <path d="M168 96c0-16-18-26-34-24 10 6 16 14 16 24 0 12-8 22-20 28"
        fill="none" stroke="#fff" stroke-width="5" opacity="0.45" stroke-linecap="round"/>
  <path d="M92 108c8-6 20-10 36-10" fill="none" stroke="#fff" stroke-width="4" opacity="0.35" stroke-linecap="round"/>
</svg>
