<svg width="100" height="120" viewBox="0 0 100 120" xmlns="http://www.w3.org/2000/svg">
  <!-- Axe Handle -->
  <rect x="45" y="40" width="10" height="75" fill="#8B4513" stroke="#654321" stroke-width="1"/>
  
  <!-- Handle grip wrapping -->
  <rect x="44" y="50" width="12" height="3" fill="#654321"/>
  <rect x="44" y="60" width="12" height="3" fill="#654321"/>
  <rect x="44" y="70" width="12" height="3" fill="#654321"/>
  <rect x="44" y="80" width="12" height="3" fill="#654321"/>
  
  <!-- Axe Head - Main blade -->
  <path d="M20 25 Q15 30 15 40 Q15 50 20 55 L45 45 L45 35 Z" 
        fill="#C0C0C0" stroke="#808080" stroke-width="2"/>
  
  <!-- Axe Head - Back spike -->
  <path d="M55 35 L55 45 L75 42 Q80 40 75 38 Z" 
        fill="#C0C0C0" stroke="#808080" stroke-width="2"/>
  
  <!-- Blade edge highlight -->
  <path d="M20 25 Q17 28 17 35 Q17 40 20 45" 
        fill="none" stroke="#E8E8E8" stroke-width="2"/>
  
  <!-- Metal connector between handle and head -->
  <rect x="42" y="30" width="16" height="20" fill="#A0A0A0" stroke="#808080" stroke-width="1"/>
  
  <!-- Decorative studs on connector -->
  <circle cx="46" cy="35" r="2" fill="#696969"/>
  <circle cx="54" cy="35" r="2" fill="#696969"/>
  <circle cx="46" cy="45" r="2" fill="#696969"/>
  <circle cx="54" cy="45" r="2" fill="#696969"/>
  
  <!-- Handle pommel -->
  <rect x="42" y="110" width="16" height="8" fill="#654321" stroke="#4A4A4A" stroke-width="1"/>
  <circle cx="50" cy="114" r="3" fill="#8B4513"/>
  
  <!-- Blade shading -->
  <path d="M25 30 Q22 35 25 45 L40 40 L40 35 Z" 
        fill="#B8B8B8" opacity="0.7"/>
</svg>