<svg xmlns="http://www.w3.org/2000/svg" viewBox="0 0 304 256" role="img" aria-labelledby="title desc">
  <title id="title">Boots Icon</title>
  <desc id="desc">Paired sabaton-style boots with greaves, leather uppers, buckles, and rivets.</desc>

  <style>
    :root{
      --stroke:#0f172a;      /* outline */
      --metal1:#7c5a2d;      /* steel light */
      --metal2:#7c5a2d;      /* mid */
      --metal3:#7c5a2d;      /* dark */
      --leather:#7c5a2d;     /* boot leather */
      --sole:#1f2937;        /* soles */
      --rivet:#e2e8f0;       /* rivets */
      --buckle:#facc15;      /* buckles */
      --shine:#ffffff;       /* highlights */
      --tint:transparent;    /* rarity overlay (rgba(...,.18)) */
      --glow:#60a5fa;        /* soft glow */
    }
  </style>

  <defs>
    <linearGradient id="steelV" x1="0" y1="0" x2="0" y2="1" style="color: #7c5a2d">
      <stop offset="0%"  stop-color="var(--metal1)"/>
      <stop offset="55%" stop-color="var(--metal2)"/>
      <stop offset="100%" stop-color="var(--metal3)"/>
    </linearGradient>
    <linearGradient id="steelH" x1="0" y1="0" x2="1" y2="0">
      <stop offset="0%"  stop-color="var(--metal2)"/>
      <stop offset="100%" stop-color="var(--metal3)"/>
    </linearGradient>
    <filter id="softGlow" x="-40%" y="-40%" width="180%" height="180%">
      <feDropShadow dx="0" dy="0" stdDeviation="7" flood-color="var(--glow)" flood-opacity="0.45"/>
    </filter>
    <clipPath id="clipPair">
      <path d="M20 94c14-16 54-24 88-18l18 70-70 44c-20-24-30-52-36-96z"/>
      <path d="M284 94c-14-16-54-24-88-18l-18 70 70 44c20-24 30-52 36-96z"/>
    </clipPath>
  </defs>

  <!-- LEFT BOOT -->
  <g filter="url(#softGlow)">
    <!-- Greave -->
    <path d="M22 96c16-14 48-24 80-18l16 60-46 30c-18-10-34-30-50-72z"
          fill="url(#steelV)" stroke="var(--stroke)" stroke-width="8"/>
    <!-- Ankle couter -->
    <path d="M76 160l50-14 6 20-48 20z" fill="url(#steelH)" stroke="var(--stroke)" stroke-width="6"/>
    <!-- Leather upper -->
    <path d="M56 170c-6 10-10 24-10 34l58 0c2-12 8-24 16-32l-20-8z"
          fill="var(--leather)" stroke="var(--stroke)" stroke-width="6"/>
    <!-- Buckles -->
    <g fill="var(--buckle)" stroke="var(--stroke)" stroke-width="3">
      <rect x="70" y="174" width="16" height="10" rx="2"/>
      <rect x="86" y="186" width="16" height="10" rx="2"/>
    </g>
    <!-- Sabaton (toe) -->
    <path d="M46 204c20-6 48-8 78 6 6 2 8 10 2 12-32 10-70 10-108 6 2-8 14-18 28-24z"
          fill="url(#steelH)" stroke="var(--stroke)" stroke-width="6"/>
    <!-- Sole -->
    <path d="M16 226c34 6 92 6 120-4l0 10c-40 12-84 12-120 6z" fill="var(--sole)"/>
  </g>

  <!-- RIGHT BOOT -->
  <g filter="url(#softGlow)">
    <!-- Greave -->
    <path d="M282 96c-16-14-48-24-80-18l-16 60 46 30c18-10 34-30 50-72z"
          fill="url(#steelV)" stroke="var(--stroke)" stroke-width="8"/>
    <!-- Ankle couter -->
    <path d="M228 160l-50-14-6 20 48 20z" fill="url(#steelH)" stroke="var(--stroke)" stroke-width="6"/>
    <!-- Leather upper -->
    <path d="M248 170c6 10 10 24 10 34h-58c-2-12-8-24-16-32l20-8z"
          fill="var(--leather)" stroke="var(--stroke)" stroke-width="6"/>
    <!-- Buckles -->
    <g fill="var(--buckle)" stroke="var(--stroke)" stroke-width="3">
      <rect x="218" y="174" width="16" height="10" rx="2"/>
      <rect x="202" y="186" width="16" height="10" rx="2"/>
    </g>
    <!-- Sabaton (toe) -->
    <path d="M258 204c-20-6-48-8-78 6-6 2-8 10-2 12 32 10 70 10 108 6-2-8-14-18-28-24z"
          fill="url(#steelH)" stroke="var(--stroke)" stroke-width="6"/>
    <!-- Sole -->
    <path d="M288 226c-34 6-92 6-120-4v10c40 12 84 12 120 6z" fill="var(--sole)"/>
  </g>

  <!-- Rivets -->
  <g fill="var(--rivet)" stroke="var(--stroke)" stroke-width="2.5">
    <circle cx="84" cy="120" r="4"/><circle cx="102" cy="130" r="4"/>
    <circle cx="220" cy="120" r="4"/><circle cx="202" cy="130" r="4"/>
    <circle cx="66" cy="196" r="3.5"/><circle cx="98" cy="208" r="3.5"/>
    <circle cx="238" cy="196" r="3.5"/><circle cx="206" cy="208" r="3.5"/>
  </g>

  <!-- Rarity tint overlay -->
  <g clip-path="url(#clipPair)">
    <rect x="0" y="0" width="304" height="256" fill="var(--tint)"/>
  </g>

  <!-- Highlights -->
  <path d="M154 82c0-16-18-26-34-24 10 6 16 14 16 24 0 12-8 22-20 28"
        fill="none" stroke="var(--shine)" stroke-width="5" opacity="0.45" stroke-linecap="round"/>
  <path d="M150 82c0-16 18-26 34-24-10 6-16 14-16 24 0 12 8 22 20 28"
        fill="none" stroke="var(--shine)" stroke-width="5" opacity="0.45" stroke-linecap="round"/>
</svg>
