<svg xmlns="http://www.w3.org/2000/svg" viewBox="0 0 288 256" role="img" aria-labelledby="title desc">
  <title id="title">Enchantment Scroll</title>
  <desc id="desc">A rolled parchment scroll with a ribbon seal, arcane glyphs, and magical sparkles.</desc>
  <style>
    :root{
      --stroke:#0f172a;      /* outlines */
      --paper1:#fde68a;      /* parchment light */
      --paper2:#fbbf24;      /* parchment shade */
      --edge:#d97706;        /* edges/aging */
      --ribbon:#ef4444;      /* seal ribbon */
      --wax:#dc2626;         /* wax seal */
      --ink:#334155;         /* runes text */
      --spark:#60a5fa;       /* sparkles */
      --shine:#ffffff;       /* highlights */
    }
  </style>
  <defs>
    <linearGradient id="paperGrad" x1="0" y1="0" x2="0" y2="1">
      <stop offset="0%"  style="stop-color:var(--paper1)"/>
      <stop offset="100%" style="stop-color:var(--paper2)"/>
    </linearGradient>
    <filter id="softGlow" x="-40%" y="-40%" width="180%" height="180%">
      <feDropShadow dx="0" dy="0" stdDeviation="6" flood-color="var(--spark)" flood-opacity="0.45"/>
    </filter>
  </defs>

  <!-- Scroll body -->
  <g filter="url(#softGlow)">
    <!-- Left roll -->
    <path d="M68 70c-18 0-32 12-32 28s14 28 32 28h12v-56z"
          fill="url(#paperGrad)" stroke="var(--stroke)" stroke-width="6"/>
    <circle cx="68" cy="98" r="12" fill="none" stroke="var(--edge)" stroke-width="4"/>

    <!-- Right roll -->
    <path d="M220 70h12c18 0 32 12 32 28s-14 28-32 28h-12z"
          fill="url(#paperGrad)" stroke="var(--stroke)" stroke-width="6"/>
    <circle cx="232" cy="98" r="12" fill="none" stroke="var(--edge)" stroke-width="4"/>

    <!-- Sheet -->
    <rect x="80" y="56" width="140" height="120" rx="10"
          fill="url(#paperGrad)" stroke="var(--stroke)" stroke-width="6"/>
    <!-- Aged edges -->
    <path d="M80 76h140M80 156h140" stroke="var(--edge)" stroke-width="3" opacity="0.35"/>
  </g>

  <!-- Ribbon + wax seal -->
  <g>
    <rect x="144" y="56" width="20" height="120" rx="6" fill="var(--ribbon)"/>
    <circle cx="154" cy="116" r="14" fill="var(--wax)" stroke="var(--stroke)" stroke-width="4"/>
    <!-- tiny rune on wax -->
    <path d="M150 112l8 8M158 112l-8 8" stroke="#fff" stroke-width="3" stroke-linecap="round" opacity="0.9"/>
  </g>

  <!-- Arcane glyphs -->
  <g fill="none" stroke="var(--ink)" stroke-width="3" stroke-linecap="round" stroke-linejoin="round" opacity="0.85">
    <!-- line 1 -->
    <path d="M96 88h36"/>
    <path d="M136 88c8 0 12-10 20-10s12 10 20 10"/>
    <!-- line 2 -->
    <path d="M96 108c6-8 18-8 24 0 6 8 18 8 24 0"/>
    <path d="M168 108l20 0 8-8"/>
    <!-- line 3 sigil -->
    <path d="M112 132l10-6 10 6-10 6z"/>
    <path d="M156 128l12 0 0 12-12 0z"/>
    <path d="M188 132a10 10 0 1 1 0 0.1"/>
  </g>

  <!-- Sparkles -->
  <g fill="var(--spark)">
    <path d="M86 46l3 6 6 3-6 3-3 6-3-6-6-3 6-3z" opacity="0.9"/>
    <path d="M210 188l2.5 5 5 2.5-5 2.5-2.5 5-2.5-5-5-2.5 5-2.5z" opacity="0.8"/>
    <circle cx="120" cy="192" r="2.5"/><circle cx="196" cy="60" r="2.5"/>
  </g>

  <!-- Specular curl highlights -->
  <path d="M96 66c0-10 10-16 20-14-6 4-8 10-8 14 0 6 4 12 10 16"
        fill="none" stroke="var(--shine)" stroke-width="4" opacity="0.45" stroke-linecap="round"/>
</svg>
