<svg xmlns="http://www.w3.org/2000/svg" viewBox="0 0 288 256" role="img" aria-labelledby="title desc">
  <title id="title">Gauntlets Icon</title>
  <desc id="desc">Paired metal gauntlets with knuckle plates, leather straps, and rivets.</desc>

  <style>
    :root{
      --stroke:#0f172a;      /* outline */
      --metal1:#cbd5e1;      /* steel light */
      --metal2:#94a3b8;      /* mid */
      --metal3:#64748b;      /* dark */
      --leather:#7c5a3a;     /* straps */
      --accent:#1e293b;      /* joints/vents */
      --rivet:#e2e8f0;       /* rivets */
      --shine:#ffffff;       /* highlights */
      --tint:transparent;    /* rarity overlay (rgba(...,.18)) */
      --glow:#60a5fa;        /* soft glow */
    }
  </style>

  <defs>
    <linearGradient id="steelV" x1="0" y1="0" x2="0" y2="1">
      <stop offset="0%"  stop-color="var(--metal1)"/>
      <stop offset="55%" stop-color="var(--metal2)"/>
      <stop offset="100%" stop-color="var(--metal3)"/>
    </linearGradient>
    <linearGradient id="steelH" x1="0" y1="0" x2="1" y2="0">
      <stop offset="0%"  stop-color="var(--metal2)"/>
      <stop offset="100%" stop-color="var(--metal3)"/>
    </linearGradient>
    <filter id="softGlow" x="-40%" y="-40%" width="180%" height="180%">
      <feDropShadow dx="0" dy="0" stdDeviation="7" flood-color="var(--glow)" flood-opacity="0.45"/>
    </filter>
    <clipPath id="clipPair">
      <path d="M18 94c18-18 54-30 88-26l24 86-54 44C46 182 26 150 18 118z"/>
      <path d="M270 94c-18-18-54-30-88-26l-24 86 54 44c30-16 50-48 58-80z"/>
    </clipPath>
  </defs>

  <!-- Left gauntlet -->
  <g filter="url(#softGlow)">
    <!-- Palm/forearm plate -->
    <path d="M18 94c18-18 54-30 88-26l24 86-54 44C46 182 26 150 18 118z"
          fill="url(#steelV)" stroke="var(--stroke)" stroke-width="8"/>
    <!-- Back-of-hand segmented plates -->
    <path d="M66 96l40-10 10 34-44 16z" fill="url(#steelH)" stroke="var(--stroke)" stroke-width="6"/>
    <path d="M58 126l46-18 6 18-46 18z" fill="url(#steelH)" stroke="var(--stroke)" stroke-width="6"/>
    <!-- Knuckle bar -->
    <rect x="48" y="142" width="56" height="14" rx="6" fill="var(--accent)" stroke="var(--stroke)" stroke-width="5"/>
    <!-- Finger caps -->
    <g fill="url(#steelH)" stroke="var(--stroke)" stroke-width="5">
      <rect x="46" y="158" width="18" height="14" rx="4"/>
      <rect x="66" y="158" width="18" height="14" rx="4"/>
      <rect x="86" y="158" width="18" height="14" rx="4"/>
    </g>
    <!-- Leather straps -->
    <g fill="var(--leather)" stroke="var(--stroke)" stroke-width="4">
      <rect x="70" y="182" width="54" height="10" rx="3"/>
      <rect x="62" y="198" width="56" height="10" rx="3"/>
    </g>
  </g>

  <!-- Right gauntlet -->
  <g filter="url(#softGlow)">
    <path d="M270 94c-18-18-54-30-88-26l-24 86 54 44c30-16 50-48 58-80z"
          fill="url(#steelV)" stroke="var(--stroke)" stroke-width="8"/>
    <path d="M222 96l-40-10-10 34 44 16z" fill="url(#steelH)" stroke="var(--stroke)" stroke-width="6"/>
    <path d="M230 126l-46-18-6 18 46 18z" fill="url(#steelH)" stroke="var(--stroke)" stroke-width="6"/>
    <rect x="184" y="142" width="56" height="14" rx="6" fill="var(--accent)" stroke="var(--stroke)" stroke-width="5"/>
    <g fill="url(#steelH)" stroke="var(--stroke)" stroke-width="5">
      <rect x="224" y="158" width="18" height="14" rx="4"/>
      <rect x="204" y="158" width="18" height="14" rx="4"/>
      <rect x="184" y="158" width="18" height="14" rx="4"/>
    </g>
    <g fill="var(--leather)" stroke="var(--stroke)" stroke-width="4">
      <rect x="164" y="182" width="54" height="10" rx="3"/>
      <rect x="170" y="198" width="56" height="10" rx="3"/>
    </g>
  </g>

  <!-- Rivets -->
  <g fill="var(--rivet)" stroke="var(--stroke)" stroke-width="2.5">
    <circle cx="74" cy="110" r="4"/><circle cx="98" cy="102" r="4"/>
    <circle cx="214" cy="110" r="4"/><circle cx="190" cy="102" r="4"/>
    <circle cx="60" cy="186" r="3.5"/><circle cx="116" cy="186" r="3.5"/>
    <circle cx="172" cy="186" r="3.5"/><circle cx="228" cy="186" r="3.5"/>
  </g>

  <!-- Rarity tint overlay -->
  <g clip-path="url(#clipPair)">
    <rect x="0" y="0" width="288" height="256" fill="var(--tint)"/>
  </g>

  <!-- Highlights -->
  <path d="M140 78c0-16-18-26-34-24 10 6 16 14 16 24 0 12-8 22-20 28"
        fill="none" stroke="var(--shine)" stroke-width="5" opacity="0.45" stroke-linecap="round"/>
  <path d="M148 78c0-16 18-26 34-24-10 6-16 14-16 24 0 12 8 22 20 28"
        fill="none" stroke="var(--shine)" stroke-width="5" opacity="0.45" stroke-linecap="round"/>
</svg>
