<svg xmlns="http://www.w3.org/2000/svg" viewBox="0 0 256 256" role="img" aria-labelledby="title desc">
  <title id="title">Helmet Icon</title>
  <desc id="desc">Front-view medieval helmet with a T-visor, rivets, and subtle crest.</desc>

  <style>
    :root{
      --stroke:#0f172a;      /* outline */
      --metal1:#cbd5e1;      /* steel light */
      --metal2:#94a3b8;      /* steel mid */
      --metal3:#64748b;      /* steel dark (shadows) */
      --accent:#1e293b;      /* visor slits */
      --rivet:#e2e8f0;       /* rivets/edge highlights */
      --tint:transparent;    /* rarity tint overlay; e.g., rgba(99,102,241,.15) */
      --glow:#60a5fa;        /* outer glow (optional) */
    }
  </style>

  <defs>
    <linearGradient id="steelV" x1="0" y1="0" x2="0" y2="1">
      <stop offset="0%"  stop-color="var(--metal1)"/>
      <stop offset="55%" stop-color="var(--metal2)"/>
      <stop offset="100%" stop-color="var(--metal3)"/>
    </linearGradient>
    <linearGradient id="steelH" x1="0" y1="0" x2="1" y2="0">
      <stop offset="0%"  stop-color="var(--metal2)"/>
      <stop offset="100%" stop-color="var(--metal3)"/>
    </linearGradient>
    <filter id="softGlow" x="-40%" y="-40%" width="180%" height="180%">
      <feDropShadow dx="0" dy="0" stdDeviation="7" flood-color="var(--glow)" flood-opacity="0.45"/>
    </filter>
    <clipPath id="clipFace">
      <path d="M128 42c-38 0-74 30-78 92-1 22 5 40 14 54 20 30 40 30 64 30s44 0 64-30c9-14 15-32 14-54-4-62-40-92-78-92z"/>
    </clipPath>
  </defs>

  <!-- Outer silhouette with glow -->
  <path filter="url(#softGlow)"
        d="M128 42c-38 0-74 30-78 92-1 22 5 40 14 54 20 30 40 30 64 30s44 0 64-30c9-14 15-32 14-54-4-62-40-92-78-92z"
        fill="url(#steelV)" stroke="var(--stroke)" stroke-width="8" />

  <!-- Crest plate -->
  <path d="M112 42h32l8 22c-10 4-20 6-24 6s-14-2-24-6l8-22z"
        fill="url(#steelH)" stroke="var(--stroke)" stroke-width="6" />

  <!-- Cheek plates -->
  <g>
    <path d="M48 132c2 24 10 42 20 56 10 12 22 18 34 22l-6-52c-18-6-32-12-48-26z"
          fill="url(#steelH)" stroke="var(--stroke)" stroke-width="6"/>
    <path d="M208 132c-2 24-10 42-20 56-10 12-22 18-34 22l6-52c18-6 32-12 48-26z"
          fill="url(#steelH)" stroke="var(--stroke)" stroke-width="6"/>
  </g>

  <!-- Face opening (T-visor cut) -->
  <g clip-path="url(#clipFace)">
    <!-- Tint overlay (rarity) -->
    <rect x="0" y="0" width="256" height="256" fill="var(--tint)"/>
    <!-- Vertical bar -->
    <rect x="118" y="120" width="20" height="70" rx="6" fill="var(--accent)"/>
    <!-- Horizontal slit -->
    <rect x="72" y="118" width="112" height="16" rx="8" fill="var(--accent)"/>
  </g>

  <!-- Nose ridge + brow highlight -->
  <path d="M128 76c-10 0-22 4-34 10m68 0c-12-6-24-10-34-10"
        fill="none" stroke="#fff" stroke-opacity="0.35" stroke-width="5" stroke-linecap="round"/>
  <path d="M128 86v22" stroke="#fff" stroke-opacity="0.35" stroke-width="4" stroke-linecap="round"/>

  <!-- Rivets -->
  <g fill="var(--rivet)" stroke="var(--stroke)" stroke-width="2">
    <circle cx="76" cy="96" r="4"/><circle cx="180" cy="96" r="4"/>
    <circle cx="62" cy="150" r="3.5"/><circle cx="194" cy="150" r="3.5"/>
    <circle cx="96" cy="210" r="3.5"/><circle cx="160" cy="210" r="3.5"/>
  </g>

  <!-- Lower rim plate -->
  <path d="M74 198c14 10 34 16 54 16s40-6 54-16"
        fill="none" stroke="var(--stroke)" stroke-width="6" stroke-linecap="round"/>

  <!-- Specular arc -->
  <path d="M170 86c0-18-18-30-34-28 10 6 16 16 16 26 0 12-8 22-20 28"
        fill="none" stroke="#fff" stroke-width="5" opacity="0.45" stroke-linecap="round"/>
</svg>
