<svg xmlns="http://www.w3.org/2000/svg" viewBox="0 0 256 256">
  <style>
    :root{ --stroke:#0f172a; --glass:#e2e8f0; --p1:#38bdf8; --p2:#3b82f6; --cork:#1e40af; --shine:#fff; --badge:#0f172a; }
  </style>
  <defs>
    <linearGradient id="gI" x1="0" y1="0" x2="0" y2="1"><stop offset="0%" style="stop-color:var(--p1)"/><stop offset="100%" style="stop-color:var(--p2)"/></linearGradient>
    <clipPath id="clipI"><circle cx="128" cy="160" r="78"/></clipPath>
  </defs>
  <rect x="112" y="32" width="32" height="24" rx="5" fill="var(--cork)" stroke="var(--stroke)" stroke-width="6"/>
  <rect x="102" y="56" width="52" height="12" rx="6" fill="var(--glass)" stroke="var(--stroke)" stroke-width="6"/>
  <rect x="106" y="68" width="44" height="32" rx="10" fill="var(--glass)" stroke="var(--stroke)" stroke-width="6"/>
  <circle cx="128" cy="160" r="78" fill="var(--glass)" stroke="var(--stroke)" stroke-width="6"/>
  <g clip-path="url(#clipI)"><path d="M48 190C88 162 168 212 208 176V264H48Z" fill="url(#gI)"/></g>
  <circle cx="128" cy="148" r="30" fill="#fff" stroke="var(--badge)" stroke-width="6"/>
  <!-- Bulb -->
  <path d="M128 136c10 0 18 8 18 18 0 7-4 12-8 15v5h-20v-5c-4-3-8-8-8-15 0-10 8-18 18-18z" fill="var(--badge)"/>
  <rect x="120" y="174" width="16" height="6" rx="2" fill="#fff"/>
  <path d="M176 118c0-20-20-32-38-30 10 6 18 18 18 30 0 14-10 26-24 30" fill="none" stroke="var(--shine)" stroke-width="6" opacity="0.55" stroke-linecap="round"/>
</svg>
