<svg xmlns="http://www.w3.org/2000/svg" viewBox="0 0 256 256" role="img" aria-labelledby="title desc">
  <title id="title">Jewelry Upgrade Stone</title>
  <desc id="desc">A faceted purple gem in a steel bezel with a ring and diamond rune.</desc>
  <style>
    :root{
      --stroke:#0f172a;
      --metal1:#94a3b8; --metal2:#64748b;
      --gem1:#c084fc;  --gem2:#7c3aed;  /* amethyst */
      --rune:#e2e8f0;  --shine:#ffffff; --glow:#8b5cf6;
    }
  </style>
  <defs>
    <linearGradient id="metalGrad" x1="0" y1="0" x2="1" y2="1">
      <stop offset="0%" style="stop-color:var(--metal1)"/><stop offset="100%" style="stop-color:var(--metal2)"/>
    </linearGradient>
    <linearGradient id="gemGrad" x1="0" y1="0" x2="0" y2="1">
      <stop offset="0%" style="stop-color:var(--gem1)"/><stop offset="100%" style="stop-color:var(--gem2)"/>
    </linearGradient>
    <filter id="glow" x="-40%" y="-40%" width="180%" height="180%">
      <feDropShadow dx="0" dy="0" stdDeviation="8" flood-color="var(--glow)" flood-opacity="0.55"/>
    </filter>
    <linearGradient id="facetShine" x1="0" y1="0" x2="1" y2="1">
      <stop offset="0%" style="stop-color:var(--shine);stop-opacity:0.25"/><stop offset="100%" style="stop-color:var(--shine);stop-opacity:0"/>
    </linearGradient>
    <polygon id="oct" points="128,36 176,52 204,88 220,136 204,184 176,220 128,236 80,220 52,184 36,136 52,88 80,52"/>
  </defs>

  <use href="#oct" fill="none" filter="url(#glow)"/>
  <use href="#oct" fill="url(#metalGrad)" stroke="var(--stroke)" stroke-width="6"/>

  <polygon points="128,56 166,68 190,96 202,134 190,172 166,200 128,212 90,200 66,172 54,134 66,96 90,68"
           fill="url(#gemGrad)" stroke="var(--stroke)" stroke-width="5"/>

  <g opacity="0.25">
    <polygon points="128,56 166,68 128,134" fill="url(#facetShine)"/>
    <polygon points="128,56 90,68 128,134"  fill="url(#facetShine)"/>
    <polygon points="128,212 166,200 128,134" fill="url(#facetShine)"/>
    <polygon points="128,212 90,200 128,134"  fill="url(#facetShine)"/>
    <polygon points="54,134 90,68 128,134"   fill="url(#facetShine)"/>
    <polygon points="202,134 166,68 128,134" fill="url(#facetShine)"/>
  </g>

  <polygon points="128,64 160,74 182,100 192,134 182,168 160,194 128,204 96,194 74,168 64,134 74,100 96,74"
           fill="none" stroke="var(--shine)" stroke-opacity="0.35" stroke-width="3"/>

  <!-- Ring + diamond rune -->
  <g fill="none" stroke="var(--rune)" stroke-width="6" stroke-linejoin="round" stroke-linecap="round">
    <!-- Ring -->
    <circle cx="128" cy="148" r="18"/>
    <!-- Diamond on top -->
    <polygon points="128,120 136,128 128,136 120,128"/>
    <!-- Small band highlight -->
    <path d="M114 148a14 14 0 0 1 28 0" stroke-width="4"/>
  </g>

  <path d="M170 88c0-18-18-28-34-26 10 6 16 16 16 26 0 12-8 22-20 28"
        fill="none" stroke="var(--shine)" stroke-width="5" stroke-linecap="round" opacity="0.55"/>

  <g fill="var(--shine)" opacity="0.7">
    <circle cx="176" cy="60" r="3"/><circle cx="208" cy="136" r="3"/><circle cx="176" cy="212" r="3"/>
    <circle cx="80"  cy="212" r="3"/><circle cx="48"  cy="136" r="3"/><circle cx="80"  cy="60"  r="3"/>
  </g>
</svg>
