<svg width="64" height="64" viewBox="0 0 64 64" xmlns="http://www.w3.org/2000/svg">
  <defs>
    <linearGradient id="goldGradient" x1="0%" y1="0%" x2="0%" y2="100%">
      <stop offset="0%" style="stop-color:#FFD700;stop-opacity:1" />
      <stop offset="100%" style="stop-color:#DAA520;stop-opacity:1" />
    </linearGradient>
    <radialGradient id="rubyGradient" cx="30%" cy="30%" r="70%">
      <stop offset="0%" style="stop-color:#FF69B4;stop-opacity:1" />
      <stop offset="100%" style="stop-color:#DC143C;stop-opacity:1" />
    </radialGradient>
  </defs>
  <!-- Ring band -->
  <ellipse cx="32" cy="32" rx="20" ry="16" fill="none" stroke="url(#goldGradient)" stroke-width="8"/>
  <!-- Inner shadow -->
  <ellipse cx="32" cy="32" rx="16" ry="12" fill="none" stroke="#B8860B" stroke-width="2" opacity="0.5"/>
  <!-- Ring setting (top) -->
  <ellipse cx="32" cy="20" rx="6" ry="4" fill="url(#goldGradient)" stroke="#B8860B" stroke-width="1"/>
  <!-- Gemstone -->
  <ellipse cx="32" cy="18" rx="4" ry="3" fill="url(#rubyGradient)" stroke="#B22222" stroke-width="1"/>
  <!-- Gem facets -->
  <ellipse cx="31" cy="17" rx="1" ry="1" fill="#FFB6C1" opacity="0.8"/>
  <path d="M30 18 L32 16 L34 18 L32 20 Z" fill="#FF1493" opacity="0.6"/>
  <!-- Side decorations -->
  <circle cx="20" cy="28" r="1" fill="#B8860B"/>
  <circle cx="44" cy="28" r="1" fill="#B8860B"/>
  <circle cx="18" cy="36" r="1" fill="#B8860B"/>
  <circle cx="46" cy="36" r="1" fill="#B8860B"/>
  <!-- Engraving lines -->
  <path d="M14 32 Q16 30 18 32 Q20 34 22 32" stroke="#B8860B" stroke-width="0.5" fill="none"/>
  <path d="M42 32 Q44 30 46 32 Q48 34 50 32" stroke="#B8860B" stroke-width="0.5" fill="none"/>
  <!-- Magic sparkle -->
  <path d="M40 16 L41 18 L40 20 L39 18 Z" fill="#FFD700" opacity="0.7"/>
  <path d="M24 16 L25 17 L24 18 L23 17 Z" fill="#FFD700" opacity="0.5"/>
</svg>