<svg xmlns="http://www.w3.org/2000/svg" viewBox="0 0 256 256" role="img" aria-labelledby="title desc">
  <title id="title">Shield Icon</title>
  <desc id="desc">Medieval kite-shaped shield with metal rim, central boss, and rivets.</desc>

  <style>
    :root{
      --stroke:#0f172a;      /* outline */
      --metal1:#cbd5e1;      /* steel light */
      --metal2:#94a3b8;      /* steel mid */
      --metal3:#64748b;      /* steel dark */
      --boss1:#f87171;       /* boss light (ruby/red) */
      --boss2:#b91c1c;       /* boss dark */
      --rivet:#e2e8f0;       /* rivets */
      --tint:transparent;    /* rarity overlay (e.g., rgba(99,102,241,.18)) */
      --glow:#60a5fa;        /* outer glow */
      --shine:#fff;          /* highlights */
    }
  </style>

  <defs>
    <linearGradient id="steelV" x1="0" y1="0" x2="0" y2="1">
      <stop offset="0%"  stop-color="var(--metal1)"/>
      <stop offset="50%" stop-color="var(--metal2)"/>
      <stop offset="100%" stop-color="var(--metal3)"/>
    </linearGradient>
    <radialGradient id="bossGrad" cx="40%" cy="35%" r="60%">
      <stop offset="0%" stop-color="var(--boss1)"/>
      <stop offset="100%" stop-color="var(--boss2)"/>
    </radialGradient>
    <filter id="softGlow" x="-40%" y="-40%" width="180%" height="180%">
      <feDropShadow dx="0" dy="0" stdDeviation="7" flood-color="var(--glow)" flood-opacity="0.45"/>
    </filter>
    <clipPath id="shieldClip">
      <path d="M128 28c-36 10-72 22-88 48 0 40 8 72 22 100 20 38 40 56 66 72 26-16 46-34 66-72 14-28 22-60 22-100-16-26-52-38-88-48z"/>
    </clipPath>
  </defs>

  <!-- Shield silhouette -->
  <path filter="url(#softGlow)"
        d="M128 28c-36 10-72 22-88 48 0 40 8 72 22 100 20 38 40 56 66 72 26-16 46-34 66-72 14-28 22-60 22-100-16-26-52-38-88-48z"
        fill="url(#steelV)" stroke="var(--stroke)" stroke-width="8"/>

  <!-- Vertical ridge -->
  <path d="M128 40v176" stroke="var(--stroke)" stroke-width="6" stroke-linecap="round"/>

  <!-- Central boss -->
  <circle cx="128" cy="128" r="28" fill="url(#bossGrad)" stroke="var(--stroke)" stroke-width="6"/>
  <path d="M118 118c8-8 20-8 24 0" stroke="var(--shine)" stroke-width="4" opacity="0.55" stroke-linecap="round"/>

  <!-- Rivets -->
  <g fill="var(--rivet)" stroke="var(--stroke)" stroke-width="2.5">
    <circle cx="128" cy="64" r="5"/>
    <circle cx="128" cy="192" r="5"/>
    <circle cx="72" cy="96" r="4.5"/>
    <circle cx="184" cy="96" r="4.5"/>
    <circle cx="96" cy="168" r="4"/>
    <circle cx="160" cy="168" r="4"/>
  </g>

  <!-- Rarity tint overlay -->
  <g clip-path="url(#shieldClip)">
    <rect x="0" y="0" width="256" height="256" fill="var(--tint)"/>
  </g>

  <!-- Shine arc -->
  <path d="M170 84c0-18-18-30-34-28 10 6 16 16 16 26 0 12-8 22-20 28"
        fill="none" stroke="var(--shine)" stroke-width="5" opacity="0.45" stroke-linecap="round"/>
</svg>
